<?xml version="1.0" encoding="UTF-8"?>
<svg width="500px" height="164px" viewBox="0 0 500 164" version="1.1" xmlns="http://www.w3.org/2000/svg" xmlns:xlink="http://www.w3.org/1999/xlink">
    <!-- Generator: Sketch 55 (78076) - https://sketchapp.com -->
    <title>LOGO COMPLETE</title>
    <desc>Created with Sketch.</desc>
    <g id="LOGO-COMPLETE" stroke="none" stroke-width="1" fill="none" fill-rule="evenodd">
        <g id="Group-50">
            <polygon id="Fill-1" fill="#9D2932" points="1 113 499 113 499 0 1 0"></polygon>
            <polygon id="Fill-2" fill="#FEFEFE" points="242 57 242 97 251 97 251 57 250.144923 57"></polygon>
            <g id="Group-49" transform="translate(0.000000, 29.000000)">
                <path d="M85.1980246,60.1558423 L39.1496524,60.1558423 L39.1496524,29.6446599 C41.5971838,27.4547036 57.3019108,13.3831708 61.9592407,9.22241168 C66.6468856,13.3500613 82.6962455,27.4720467 85.1980246,29.6698861 L85.1980246,60.1558423 Z M64.93489,1.33762336 C63.2165124,-0.166493431 60.6237885,-0.164916788 58.9101974,1.36757956 L32.9111598,24.6561635 C31.9729926,25.5043971 31.430515,26.694762 31.430515,27.9560759 L31.430515,63.181419 C31.430515,65.6441343 33.4536374,67.6385869 35.9378658,67.6385869 L88.4145978,67.6385869 C90.8924441,67.6385869 92.917162,65.6441343 92.917162,63.181419 L92.917162,27.9560759 C92.917162,26.6931854 92.3667068,25.4775942 91.4046068,24.6293606 L64.93489,1.33762336 Z" id="Fill-3" fill="#FEFEFE"></path>
                <path d="M51.4575123,49.531165 L72.6763647,49.531165 L72.6763647,35.4832818 C71.5259931,34.4679241 64.1275557,27.9611212 61.9688139,26.0565372 C59.8212407,27.9753109 52.5823555,34.4600409 51.4575123,35.4659387 L51.4575123,49.531165 Z" id="Fill-5" fill="#FEFEFE"></path>
                <polygon id="Fill-7" fill="#FEFEFE" points="313.232321 35.5955387 330.274096 35.5955387 330.274096 67.4090277 339.612688 67.4090277 339.612688 35.5955387 356.228459 35.5955387 356.228459 27.1242394 313.232321 27.1242394"></polygon>
                <path d="M456.670423,27.1248701 L456.670423,55.7283153 L431.102177,29.6348847 C428.83813,27.2667679 426.189563,26.2955562 423.24742,26.7543591 C420.576515,27.1611328 418.846969,29.3164029 418.846969,32.2410745 L418.846969,67.4080818 L427.994099,67.4080818 L427.994099,38.8014832 L453.153892,64.4928701 C455.760976,67.2110015 458.130326,68.2452788 460.842714,67.8716146 C465.299008,67.2378044 465.815958,63.999381 465.815958,61.6123445 L465.815958,27.1248701 L456.670423,27.1248701 Z" id="Fill-9" fill="#FEFEFE"></path>
                <path d="M385.625959,59.3982657 C375.728933,59.3982657 370.572205,58.859054 370.572205,47.2139737 C370.572205,35.5720467 375.728933,35.0312584 385.625959,35.0312584 C395.516602,35.0312584 400.678117,35.5720467 400.678117,47.2139737 C400.678117,58.859054 395.516602,59.3982657 385.625959,59.3982657 M385.625959,26.3392292 C369.606914,26.3392292 360.708685,29.7495066 360.708685,47.2139737 C360.708685,64.6815942 369.606914,68.0918715 385.625959,68.0918715 C401.640217,68.0918715 410.535255,64.6815942 410.535255,47.2139737 C410.535255,29.7495066 401.640217,26.3392292 385.625959,26.3392292" id="Fill-11" fill="#FEFEFE"></path>
                <path d="M214.335619,45.1384818 L195.580254,45.1384818 L195.580254,35.4847007 L214.310091,35.4847007 C219.822621,35.4847007 220.486358,37.952146 220.486358,40.2934599 C220.486358,42.6458102 219.768373,45.1384818 214.335619,45.1384818 M229.786658,40.3249927 C229.786658,32.1753285 224.345927,27.1174599 215.586509,27.1174599 L186.429933,27.1174599 L186.429933,67.3975182 L195.580254,67.3975182 L195.580254,53.0248467 L210.396275,53.0248467 L220.657079,67.3975182 L231.393349,67.3975182 L220.66027,52.1072409 C226.485523,50.6835328 229.786658,46.3020438 229.786658,40.3249927" id="Fill-13" fill="#FEFEFE"></path>
                <path d="M288.241494,42.0821606 L280.054868,42.0821606 C273.031379,42.0821606 271.597004,40.7688175 271.597004,38.2934891 C271.597004,35.2710657 276.299008,34.1027737 282.926809,34.1027737 C288.756847,34.1027737 294.259804,35.0724088 300.640298,38.0286131 L305.536957,31.2159416 C298.578883,27.0614891 291.68144,25.5494891 282.993821,25.5494891 C269.704714,25.5494891 261.762204,30.478073 261.762204,38.7428321 C261.762204,47.7375766 269.297856,50.804146 279.003419,50.7127007 L288.016525,50.7127007 C296.886034,50.7127007 298.068316,51.7201752 298.068316,55.0642336 C298.068316,58.3736058 293.16368,60.4248175 285.262653,60.4248175 C278.312558,60.4248175 271.172595,59.0720584 264.900596,54.9333723 C264.900596,54.9270657 259.928949,61.9115912 259.928949,61.9115912 C266.595041,67.1428905 274.796026,68.9512993 285.205215,68.9512993 C299.730851,68.9512993 308.06586,63.7294599 308.06586,54.6338102 C308.06586,46.2602628 301.396576,42.0821606 288.241494,42.0821606" id="Fill-15" fill="#FEFEFE"></path>
                <path d="M143.01146,52.6366774 C143.01146,52.6366774 151.748541,38.1016117 152.070836,37.5560934 L152.074027,37.5560934 C152.393132,38.1016117 156.776032,45.3920058 161.130212,52.6366774 L143.01146,52.6366774 Z M152.070836,25.9252029 C150.178547,25.9252029 148.321358,26.7860496 147.424675,28.2176409 L123.23496,67.4255825 L134.121209,67.4255825 L138.547188,60.0595095 L165.594484,60.0595095 L170.022059,67.4255825 L180.906713,67.4255825 L156.716997,28.2176409 C155.821909,26.7860496 153.966317,25.9252029 152.070836,25.9252029 L152.070836,25.9252029 Z" id="Fill-17" fill="#FEFEFE"></path>
                <path d="M0.000319104481,117.95965 C0.000319104481,108.373664 7.29983412,101.903124 16.7660686,101.903124 C23.6411746,101.903124 27.6443403,105.579854 29.8573299,109.491504 L24.1118537,112.280584 C22.7939522,109.768993 19.968282,107.768234 16.7660686,107.768234 C11.0205924,107.768234 6.87702068,112.096117 6.87702068,117.95965 C6.87702068,123.823182 11.0205924,128.152642 16.7660686,128.152642 C19.968282,128.152642 22.7939522,126.14873 24.1118537,123.637139 L29.8573299,126.382073 C27.6443403,130.244847 23.6411746,134.014599 16.7660686,134.014599 C7.29983412,134.014599 0.000319104481,127.499912 0.000319104481,117.95965" id="Fill-19" fill="#9D2932"></path>
                <path d="M32.3471426,117.95965 C32.3471426,108.605431 39.2701143,101.903124 48.7826189,101.903124 C58.2488534,101.903124 65.1702296,108.605431 65.1702296,117.95965 C65.1702296,127.313869 58.2488534,134.014599 48.7826189,134.014599 C39.2701143,134.014599 32.3471426,127.313869 32.3471426,117.95965 M58.2951235,117.95965 C58.2951235,112.143416 54.5759608,107.768234 48.7826189,107.768234 C42.9430069,107.768234 39.2222487,112.143416 39.2222487,117.95965 C39.2222487,123.730161 42.9430069,128.152642 48.7826189,128.152642 C54.5759608,128.152642 58.2951235,123.730161 58.2951235,117.95965" id="Fill-21" fill="#9D2932"></path>
                <polygon id="Fill-23" fill="#9D2932" points="97.188535 133.456625 97.188535 111.073034 88.3333857 133.456625 85.4151752 133.456625 76.5616214 111.073034 76.5616214 133.456625 69.8747869 133.456625 69.8747869 102.417267 79.24529 102.417267 86.8750782 121.822581 94.5048663 102.417267 103.923235 102.417267 103.923235 133.456625"></polygon>
                <polygon id="Fill-25" fill="#9D2932" points="110.131094 133.456625 110.131094 102.417267 132.359912 102.417267 132.359912 108.233501 116.817928 108.233501 116.817928 114.748187 132.029639 114.748187 132.029639 120.56442 116.817928 120.56442 116.817928 133.456625"></polygon>
                <path d="M135.509952,117.95965 C135.509952,108.605431 142.432923,101.903124 151.947024,101.903124 C161.411663,101.903124 168.333039,108.605431 168.333039,117.95965 C168.333039,127.313869 161.411663,134.014599 151.947024,134.014599 C142.432923,134.014599 135.509952,127.313869 135.509952,117.95965 M161.457933,117.95965 C161.457933,112.143416 157.73877,107.768234 151.947024,107.768234 C146.105816,107.768234 142.385058,112.143416 142.385058,117.95965 C142.385058,123.730161 146.105816,128.152642 151.947024,128.152642 C157.73877,128.152642 161.457933,123.730161 161.457933,117.95965" id="Fill-27" fill="#9D2932"></path>
                <path d="M190.790655,133.456625 L184.62077,122.426435 L179.724111,122.426435 L179.724111,133.456625 L173.037277,133.456625 L173.037277,102.417267 L187.730443,102.417267 C194.276871,102.417267 198.327903,106.650552 198.327903,112.421063 C198.327903,117.865209 194.793821,120.845063 191.403335,121.634961 L198.514579,133.456625 L190.790655,133.456625 Z M191.451201,112.37534 C191.451201,109.81645 189.424888,108.233501 186.789085,108.233501 L179.724111,108.233501 L179.724111,116.608625 L186.789085,116.608625 C189.424888,116.608625 191.451201,115.028829 191.451201,112.37534 L191.451201,112.37534 Z" id="Fill-29" fill="#9D2932"></path>
                <polygon id="Fill-31" fill="#9D2932" points="210.141151 133.456625 210.141151 108.233501 200.958919 108.233501 200.958919 102.417267 226.010216 102.417267 226.010216 108.233501 216.875851 108.233501 216.875851 133.456625"></polygon>
                <path d="M264.101399,133.456625 L262.124547,128.196946 L248.655147,128.196946 L246.678295,133.456625 L239.096372,133.456625 L251.19841,102.417267 L259.579689,102.417267 L271.684917,133.456625 L264.101399,133.456625 Z M255.389847,109.024975 L250.493189,122.380712 L260.286505,122.380712 L255.389847,109.024975 Z" id="Fill-33" fill="#9D2932"></path>
                <polygon id="Fill-35" fill="#9D2932" points="274.314976 133.456625 274.314976 102.417267 281.049676 102.417267 281.049676 127.638815 294.329209 127.638815 294.329209 133.456625"></polygon>
                <polygon id="Fill-37" fill="#9D2932" points="319.42582 133.456625 313.916481 112.141997 308.451816 133.456625 301.340573 133.456625 292.346613 102.417267 299.8344 102.417267 305.345334 124.846581 311.325352 102.417267 316.552284 102.417267 322.486032 124.846581 327.99537 102.417267 335.483157 102.417267 326.535467 133.456625"></polygon>
                <path d="M358.271525,133.456625 L356.294673,128.196946 L342.823677,128.196946 L340.846825,133.456625 L333.264902,133.456625 L345.36694,102.417267 L353.75141,102.417267 L365.853447,133.456625 L358.271525,133.456625 Z M349.558377,109.024975 L344.663314,122.380712 L354.456631,122.380712 L349.558377,109.024975 Z" id="Fill-39" fill="#9D2932"></path>
                <polygon id="Fill-41" fill="#9D2932" points="374.418371 133.456625 374.418371 120.750464 362.362604 102.417267 369.992392 102.417267 377.762586 114.841209 385.534376 102.417267 393.116298 102.417267 381.105206 120.750464 381.105206 133.456625"></polygon>
                <path d="M392.967915,129.080812 L396.640807,123.915731 C398.853797,126.197133 402.293743,128.150593 406.625587,128.150593 C410.344749,128.150593 412.08706,126.521921 412.08706,124.708782 C412.08706,119.308782 394.005004,123.078534 394.005004,111.397191 C394.005004,106.232111 398.525119,101.951527 405.917175,101.951527 C410.909564,101.951527 415.056327,103.439877 418.162809,106.27941 L414.442051,111.211147 C411.898788,108.884023 408.508303,107.81506 405.30609,107.81506 C402.480419,107.81506 400.88011,109.024345 400.88011,110.886359 C400.88011,115.77395 418.917491,112.469308 418.917491,124.054476 C418.917491,129.733542 414.772324,134.014126 406.343179,134.014126 C400.26743,134.014126 395.933991,132.013366 392.967915,129.080812" id="Fill-43" fill="#9D2932"></path>
                <path d="M433.976191,117.95965 C433.976191,108.605431 440.899163,101.903124 450.413263,101.903124 C459.877902,101.903124 466.800874,108.605431 466.800874,117.95965 C466.800874,127.313869 459.877902,134.014599 450.413263,134.014599 C440.899163,134.014599 433.976191,127.313869 433.976191,117.95965 M459.925768,117.95965 C459.925768,112.143416 456.206605,107.768234 450.413263,107.768234 C444.573651,107.768234 440.851297,112.143416 440.851297,117.95965 C440.851297,123.730161 444.573651,128.152642 450.413263,128.152642 C456.206605,128.152642 459.925768,123.730161 459.925768,117.95965" id="Fill-45" fill="#9D2932"></path>
                <polygon id="Fill-47" fill="#9D2932" points="493.167998 133.456625 478.19083 113.214114 478.19083 133.456625 471.503995 133.456625 471.503995 102.417267 478.380697 102.417267 492.935052 121.915603 492.935052 102.417267 499.620291 102.417267 499.620291 133.456625"></polygon>
            </g>
        </g>
    </g>
</svg>